<svg width="35" height="82" viewBox="0 0 35 82" fill="none" xmlns="http://www.w3.org/2000/svg">
<mask id="mask0_3_62490" style="mask-type:luminance" maskUnits="userSpaceOnUse" x="0" y="0" width="35" height="82">
<path d="M0 0H34.9844V81.0833H0V0Z" fill="white"/>
</mask>
<g mask="url(#mask0_3_62490)">
<path d="M33.677 6.91659C33.7499 1.927 35.0364 0.036377 35.0364 0.036377C33.6405 0.578044 32.3385 1.15617 31.1249 1.75513C22.5364 5.97388 16.5728 14.1458 14.9583 23.578L13.901 18.0572C13.901 18.0572 5.41659 31.3489 4.95825 36.4374C4.69784 39.3697 8.14054 47.7812 8.14054 47.7812L3.29159 41.8072C0.723877 51.5364 4.45825 57.9843 6.65096 60.7447C5.76034 63.0468 4.89575 65.3541 4.05721 67.6718C3.31763 69.7447 2.59888 71.8228 1.91659 73.9114C1.57284 74.9635 1.2395 76.0103 0.921794 77.0676C0.598876 78.1197 0.286376 79.177 0.00512695 80.2499C0.552002 79.2864 1.06763 78.3124 1.57804 77.3333C2.08846 76.3593 2.58325 75.3749 3.07284 74.3853C4.052 72.4166 4.99471 70.427 5.91138 68.4322C7.74992 64.4374 9.4895 60.4062 11.151 56.3385C12.8072 52.276 14.3905 48.177 15.8749 44.0416C16.0937 43.4374 16.3072 42.8333 16.5155 42.2343L16.5208 42.2239L11.7083 61.0937C18.9583 57.802 20.6353 50.6093 20.6353 50.6093L16.552 50.3801L22.9687 47.302C24.7083 45.1666 26.5208 42.953 27.578 40.4062C33.2135 26.8437 30.1458 15.7343 33.7187 9.05721L30.0416 9.76034L33.677 6.91659Z" fill="#213453"/>
</g>
</svg>
