<svg width="78" height="83" viewBox="0 0 78 83" fill="none" xmlns="http://www.w3.org/2000/svg">
<mask id="mask0_77_4" style="mask-type:luminance" maskUnits="userSpaceOnUse" x="19" y="37" width="59" height="46">
<path d="M19.6875 37.384H77.0208V82.108H19.6875V37.384Z" fill="white"/>
</mask>
<g mask="url(#mask0_77_4)">
<path fill-rule="evenodd" clip-rule="evenodd" d="M45.7813 39.9621C43.7604 45.6705 39.3959 60.2903 38.4844 62.1913C33.5365 59.5767 26.2969 60.2434 22.9271 63.5611C19.5052 66.9361 19.4427 72.1392 23.375 75.0819C26.6875 77.5507 31.9219 78.1809 35.5209 75.8736C40.8177 72.4726 41.2813 67.1913 43.1667 61.6705C44.1042 58.9309 45.0365 56.1705 45.8125 53.4309C47.5209 47.3267 48.0834 47.8215 51.5209 48.0455L66.0209 49.0767C71.224 49.7955 71.1146 48.9569 69.6771 53.4778C68.1667 58.2121 65.8334 65.509 65.2917 66.8476C62.7136 65.2486 56.9688 63.4048 50.6719 67.1653C43.5469 71.4153 46.5261 81.8892 56.2396 81.8892C59.9844 81.8892 64.2552 79.7226 65.8646 76.5351L69.7292 65.4153C72.3594 57.4465 73.7448 53.5246 76.0521 45.3892C77.5521 40.1028 77.0573 40.6444 66.625 38.7642C60.8438 37.7278 55.0209 38.2121 49.2292 38.0351C46.9531 37.9673 46.4896 37.9673 45.7813 39.9621Z" fill="#213453"/>
</g>
<mask id="mask1_77_4" style="mask-type:luminance" maskUnits="userSpaceOnUse" x="0" y="12" width="27" height="46">
<path d="M0 12.0508H26.3542V57.3841H0V12.0508Z" fill="white"/>
</mask>
<g mask="url(#mask1_77_4)">
<path fill-rule="evenodd" clip-rule="evenodd" d="M0.00512695 13.8944C1.89575 18.0455 6.69783 24.6757 10.0155 29.5507C11.3489 31.5142 15.0364 37.1496 15.4426 38.0351C10.6926 39.1757 6.95825 42.6601 5.91138 46.8632C5.052 50.3163 5.39054 54.3476 8.55721 56.2851C13.8489 59.5246 20.6562 54.5871 22.0208 48.9153C22.7291 45.9726 22.5103 45.2486 21.8645 42.5611C21.552 41.259 16.8176 34.1236 15.9166 32.7903C14.6874 30.9674 10.3958 24.4726 9.86971 22.8788C12.7135 22.858 15.0155 22.3215 17.901 23.3632C20.4374 24.2799 22.1666 26.2278 22.7239 29.7017C22.9739 31.2434 22.3749 33.2174 24.3645 32.7434C25.9374 32.3684 26.4635 25.8371 23.8385 20.8371C22.4062 18.1236 18.3437 15.5351 15.3853 14.8371C11.677 14.5246 7.84888 14.5767 4.29159 13.4621C2.13013 12.7851 1.03117 11.9986 0.00512695 13.8944Z" fill="#213453"/>
</g>
<path fill-rule="evenodd" clip-rule="evenodd" d="M39.8177 30.2954C44.2396 30.2954 47.0469 27.2173 47.5781 23.1495L49.1667 9.57142L52.2656 11.7798C54.0677 13.4152 54.4375 15.9204 53.4219 18.1287C53.1198 18.785 51.8489 20.1339 52.3333 20.9152C52.7187 21.5454 54.3125 20.2954 55.1719 19.3735C57.3698 17.0089 58.1458 13.8006 57.1562 10.4256C55.9896 6.436 52.1614 4.92558 50.4271 2.2485C47.7656 -1.85046 47.6614 0.264126 47.375 3.73809C47.2187 5.21204 45.9844 19.561 45.5729 19.7537C42.5677 18.9933 38.9583 18.41 36.4583 20.8735C30.3906 26.8579 36.1771 30.2954 39.8177 30.2954Z" fill="#213453"/>
</svg>
