<svg width="54" height="67" viewBox="0 0 54 67" fill="none" xmlns="http://www.w3.org/2000/svg">
<mask id="mask0_77_6" style="mask-type:luminance" maskUnits="userSpaceOnUse" x="0" y="0" width="43" height="55">
<path d="M0 0H42.125V54.4531H0V0Z" fill="white"/>
</mask>
<g mask="url(#mask0_77_6)">
<path d="M40.8854 5.58341C40.8854 5.573 40.8854 5.54175 40.8854 5.51571V0.026123H0V54.0313H40.8854V5.58341ZM4.36458 27.1199H28.4844C29.1615 27.1199 29.7083 27.6772 29.7083 28.3438C29.7083 29.0261 29.151 29.5678 28.4844 29.5678H4.36458C3.68229 29.5678 3.14063 29.0105 3.14063 28.3438C3.125 27.6772 3.68229 27.1199 4.36458 27.1199ZM4.36458 23.422V9.27091H18.724V23.4063H4.36458V23.422ZM4.36458 32.1667H8.08854C8.77083 32.1667 9.3125 32.724 9.3125 33.3907C9.3125 34.0678 8.75521 34.6147 8.08854 34.6147H4.36458C3.68229 34.6147 3.14063 34.0574 3.14063 33.3907C3.125 32.724 3.68229 32.1667 4.36458 32.1667ZM4.36458 37.6407H28.4844C29.1615 37.6407 29.7083 38.198 29.7083 38.8647C29.7083 39.547 29.151 40.0886 28.4844 40.0886H4.36458C3.68229 40.0886 3.14063 39.5313 3.14063 38.8647C3.125 38.198 3.68229 37.6407 4.36458 37.6407ZM4.36458 42.6876H8.08854C8.77083 42.6876 9.3125 43.2449 9.3125 43.9115C9.3125 44.5938 8.75521 45.1355 8.08854 45.1355H4.36458C3.68229 45.1355 3.14063 44.5782 3.14063 43.9115C3.125 43.2449 3.68229 42.6876 4.36458 42.6876ZM28.4844 50.6407H4.36458C3.68229 50.6407 3.14063 50.0834 3.14063 49.4167C3.14063 48.7345 3.69792 48.1928 4.36458 48.1928H28.4844C29.1615 48.1928 29.7083 48.7501 29.7083 49.4167C29.7083 50.0834 29.1615 50.6407 28.4844 50.6407ZM36.474 50.4167H32.75C32.0677 50.4167 31.526 49.8647 31.526 49.198C31.526 48.5157 32.0833 47.974 32.75 47.974H36.474C37.1563 47.974 37.6979 48.5261 37.6979 49.198C37.7135 49.8647 37.1563 50.4167 36.474 50.4167ZM36.474 45.3699H12.3542C11.6771 45.3699 11.1354 44.8178 11.1354 44.1511C11.1354 43.4688 11.6875 42.9272 12.3542 42.9272H36.474C37.1563 42.9272 37.6979 43.4792 37.6979 44.1511C37.7135 44.8178 37.1563 45.3699 36.474 45.3699ZM36.474 39.8959H32.75C32.0677 39.8959 31.526 39.3386 31.526 38.672C31.526 37.9897 32.0833 37.448 32.75 37.448H36.474C37.1563 37.448 37.6979 38.0053 37.6979 38.672C37.7135 39.3386 37.1563 39.8959 36.474 39.8959ZM36.474 34.849H12.3542C11.6771 34.849 11.1354 34.2917 11.1354 33.6251C11.1354 32.9428 11.6875 32.4011 12.3542 32.4011H36.474C37.1563 32.4011 37.6979 32.9584 37.6979 33.6251C37.7135 34.2917 37.1563 34.849 36.474 34.849ZM36.474 29.3595H32.75C32.0677 29.3595 31.526 28.8022 31.526 28.1355C31.526 27.4532 32.0833 26.9115 32.75 26.9115H36.474C37.1563 26.9115 37.6979 27.4688 37.6979 28.1355C37.7135 28.8178 37.1563 29.3595 36.474 29.3595ZM36.474 24.6459H23.1042C22.4219 24.6459 21.8802 24.0886 21.8802 23.422C21.8802 22.7553 22.4375 22.198 23.1042 22.198H36.474C37.1563 22.198 37.6979 22.7553 37.6979 23.422C37.6979 24.0886 37.1563 24.6459 36.474 24.6459ZM36.474 19.9324H23.1042C22.4219 19.9324 21.8802 19.3751 21.8802 18.7084C21.8802 18.0417 22.4375 17.4845 23.1042 17.4845H36.474C37.1563 17.4845 37.6979 18.0417 37.6979 18.7084C37.6979 19.3751 37.1563 19.9324 36.474 19.9324ZM36.474 15.2188H23.1042C22.4219 15.2188 21.8802 14.6615 21.8802 13.9949C21.8802 13.3282 22.4375 12.7709 23.1042 12.7709H36.474C37.1563 12.7709 37.6979 13.3282 37.6979 13.9949C37.6979 14.6615 37.1563 15.2188 36.474 15.2188ZM36.474 10.5053H23.1042C22.4219 10.5053 21.8802 9.948 21.8802 9.28133C21.8802 8.60425 22.4375 8.05737 23.1042 8.05737H36.474C37.1563 8.05737 37.6979 8.61466 37.6979 9.28133C37.7135 9.948 37.1563 10.5053 36.474 10.5053ZM36.5156 5.87508H4.83333C4.15625 5.87508 3.61458 5.323 3.61458 4.65633C3.61458 3.98446 4.16667 3.43237 4.83333 3.43237H36.5156C37.1979 3.43237 37.7396 3.98446 37.7396 4.65633C37.7396 5.323 37.1979 5.87508 36.5156 5.87508Z" fill="#213453"/>
</g>
<path d="M47.2917 6.823H43.3438V55.2709C43.3438 55.3542 43.3281 55.4376 43.3177 55.5209C43.3021 55.5626 43.3021 55.6042 43.2865 55.6303C43.2604 55.7136 43.2344 55.7865 43.1927 55.8542C43.1354 55.9532 43.0677 56.047 42.9844 56.1303C42.7604 56.3542 42.4531 56.4949 42.1042 56.4949H6.40625V60.8334H47.2917V6.823Z" fill="#213453"/>
<mask id="mask1_77_6" style="mask-type:luminance" maskUnits="userSpaceOnUse" x="11" y="11" width="43" height="56">
<path d="M11.4584 11.7866H53.974V66.9689H11.4584V11.7866Z" fill="white"/>
</mask>
<g mask="url(#mask1_77_6)">
<path d="M49.7553 12.7292V62.0522C49.7553 62.7345 49.198 63.2761 48.5313 63.2761H12.7605V66.7397H53.6615V12.7292H49.7553Z" fill="#213453"/>
</g>
</svg>
